<svg width="22" height="21" viewBox="0 0 22 21" fill="none" xmlns="http://www.w3.org/2000/svg">
<path d="M1.20833 20.75C0.865972 20.75 0.579195 20.586 0.348 20.258C0.116 19.9311 0 19.5257 0 19.0417C0 18.5576 0.116 18.1522 0.348 17.8253C0.579195 17.4973 0.865972 17.3333 1.20833 17.3333H20.5417C20.884 17.3333 21.1708 17.4973 21.402 17.8253C21.634 18.1522 21.75 18.5576 21.75 19.0417C21.75 19.5257 21.634 19.9311 21.402 20.258C21.1708 20.586 20.884 20.75 20.5417 20.75H1.20833ZM1.20833 12.2083C0.865972 12.2083 0.579195 12.0443 0.348 11.7163C0.116 11.3895 0 10.984 0 10.5C0 10.016 0.116 9.60996 0.348 9.28196C0.579195 8.9551 0.865972 8.79167 1.20833 8.79167H20.5417C20.884 8.79167 21.1708 8.9551 21.402 9.28196C21.634 9.60996 21.75 10.016 21.75 10.5C21.75 10.984 21.634 11.3895 21.402 11.7163C21.1708 12.0443 20.884 12.2083 20.5417 12.2083H1.20833ZM1.20833 3.66667C0.865972 3.66667 0.579195 3.50324 0.348 3.17637C0.116 2.84837 0 2.44236 0 1.95833C0 1.47431 0.116 1.06829 0.348 0.740292C0.579195 0.413431 0.865972 0.25 1.20833 0.25H20.5417C20.884 0.25 21.1708 0.413431 21.402 0.740292C21.634 1.06829 21.75 1.47431 21.75 1.95833C21.75 2.44236 21.634 2.84837 21.402 3.17637C21.1708 3.50324 20.884 3.66667 20.5417 3.66667H1.20833Z" fill="url(#paint0_linear_767_59)"/>
<defs>
<linearGradient id="paint0_linear_767_59" x1="-3.241e-07" y1="20.75" x2="24.5076" y2="16.6221" gradientUnits="userSpaceOnUse">
<stop stop-color="#F54864"/>
<stop offset="1" stop-color="#F78361"/>
</linearGradient>
</defs>
</svg>
