<svg width="225" height="216" viewBox="0 0 225 216" fill="none" xmlns="http://www.w3.org/2000/svg">
<path opacity="0.2" d="M55.8695 131.698C56.966 132.661 57.7811 133.903 58.2283 135.293C58.6756 136.682 58.7382 138.166 58.4095 139.588L44.8895 198.128C44.5322 199.657 44.6328 201.257 45.1786 202.73C45.7245 204.202 46.6915 205.481 47.9591 206.407C49.2268 207.334 50.7391 207.867 52.3075 207.94C53.876 208.013 55.4313 207.623 56.7795 206.818L107.88 175.818C109.121 175.063 110.546 174.664 112 174.664C113.453 174.664 114.878 175.063 116.12 175.818L167.22 206.818C168.568 207.623 170.123 208.013 171.692 207.94C173.26 207.867 174.772 207.334 176.04 206.407C177.308 205.481 178.275 204.202 178.82 202.73C179.366 201.257 179.467 199.657 179.11 198.128L165.59 139.588C165.261 138.166 165.324 136.682 165.771 135.293C166.218 133.903 167.033 132.661 168.13 131.698L213.24 92.3482C214.446 91.3232 215.32 89.9635 215.753 88.4411C216.186 86.9187 216.158 85.3021 215.672 83.7958C215.186 82.2895 214.264 80.9613 213.023 79.9791C211.782 78.9969 210.277 78.405 208.7 78.2782L149.24 73.1382C147.789 73.009 146.401 72.4862 145.226 71.6262C144.05 70.7662 143.132 69.6017 142.57 68.2582L119.34 12.8982C118.719 11.4669 117.694 10.2483 116.39 9.39221C115.085 8.53617 113.56 8.08008 112 8.08008C110.44 8.08008 108.914 8.53617 107.609 9.39221C106.305 10.2483 105.28 11.4669 104.66 12.8982L81.4295 68.2582C80.8673 69.6017 79.9489 70.7662 78.7735 71.6262C77.5981 72.4862 76.2102 73.009 74.7595 73.1382L15.2995 78.2782C13.7219 78.405 12.2173 78.9969 10.9761 79.9791C9.73499 80.9613 8.81306 82.2895 8.32703 83.7958C7.84099 85.3021 7.81268 86.9187 8.24568 88.4411C8.67868 89.9635 9.55353 91.3232 10.7595 92.3482L55.8695 131.698Z" fill="#FFD233"/>
<path d="M0.798615 81.288C1.76748 78.3019 3.59341 75.6667 6.04903 73.7108C8.50464 71.7548 11.4814 70.5645 14.6086 70.288L73.9986 65.168L97.2786 9.808C98.4907 6.90317 100.535 4.42188 103.154 2.67658C105.774 0.931281 108.851 0 111.999 0C115.146 0 118.223 0.931281 120.843 2.67658C123.462 4.42188 125.507 6.90317 126.719 9.808L149.929 65.168L209.389 70.318C212.528 70.5818 215.52 71.7667 217.989 73.7242C220.458 75.6816 222.294 78.3244 223.267 81.3211C224.24 84.3178 224.306 87.5351 223.458 90.5695C222.61 93.6038 220.885 96.3202 218.499 98.378L173.389 137.798L186.909 196.338C187.624 199.401 187.42 202.608 186.322 205.556C185.225 208.504 183.283 211.063 180.739 212.913C178.195 214.764 175.162 215.823 172.019 215.959C168.876 216.095 165.763 215.302 163.069 213.678L112.069 182.678L60.9586 213.678C58.2643 215.302 55.1512 216.095 52.0083 215.959C48.8655 215.823 45.8325 214.764 43.2886 212.913C40.7446 211.063 38.8025 208.504 37.7051 205.556C36.6077 202.608 36.4037 199.401 37.1186 196.338L50.6286 137.738L5.52861 98.378C3.143 96.3131 1.42114 93.589 0.579529 90.5482C-0.262078 87.5074 -0.18585 84.2856 0.798615 81.288ZM111.989 149.5L112.069 155C112.049 158 112.069 155.5 112.069 158.5C112.069 161.5 111.989 159.5 112.069 162.5L111.989 165C112.069 162.5 112.069 162.5 111.989 166.678C114.906 166.678 117.767 167.481 120.259 168.998L171.259 199.998L157.799 141.398C157.137 138.565 157.261 135.605 158.156 132.837C159.051 130.069 160.684 127.597 162.879 125.688L207.999 86.348C208.002 86.3181 208.002 86.2879 207.999 86.258L148.559 81.118C145.657 80.8622 142.879 79.8189 140.527 78.1007C138.174 76.3825 136.335 74.0546 135.209 71.368L111.999 16.078L112.069 90.5695C112.069 97.5 112.069 121.5 112.069 125.648C112.069 129.796 112.069 130.5 112.069 132.797V141.398L111.989 149.5Z" fill="#FFD233"/>
</svg>
