<svg width="226" height="216" viewBox="0 0 226 216" fill="none" xmlns="http://www.w3.org/2000/svg">
<path d="M219.499 98.38L174.399 137.74L187.909 196.34C188.624 199.403 188.42 202.61 187.323 205.558C186.226 208.506 184.283 211.065 181.739 212.915C179.196 214.766 176.163 215.825 173.02 215.961C169.877 216.097 166.764 215.304 164.069 213.68L112.959 182.68L61.9594 213.68C59.2651 215.304 56.152 216.097 53.0092 215.961C49.8664 215.825 46.8334 214.766 44.2894 212.915C41.7454 211.065 39.8033 208.506 38.7059 205.558C37.6085 202.61 37.4045 199.403 38.1194 196.34L51.6094 137.8L6.49944 98.38C4.11353 96.3222 2.38826 93.6058 1.54 90.5714C0.691738 87.5371 0.758238 84.3198 1.73116 81.323C2.70408 78.3263 4.54012 75.6835 7.00902 73.7261C9.47793 71.7687 12.4698 70.5838 15.6094 70.32L75.0694 65.17L98.2794 9.80996C99.4915 6.90512 101.536 4.42383 104.155 2.67853C106.775 0.933234 109.852 0.00195312 112.999 0.00195312C116.147 0.00195312 119.224 0.933234 121.844 2.67853C124.463 4.42383 126.507 6.90512 127.719 9.80996L150.999 65.17L210.439 70.32C213.579 70.5838 216.571 71.7687 219.04 73.7261C221.509 75.6835 223.345 78.3263 224.318 81.323C225.291 84.3198 225.357 87.5371 224.509 90.5714C223.661 93.6058 221.935 96.3222 219.549 98.38H219.499Z" fill="#FFD233"/>
</svg>
